<svg width="507" height="134" viewBox="0 0 507 134" fill="none" xmlns="http://www.w3.org/2000/svg">
<path d="M0 29.8816C0 32.2803 0.862235 34.5991 2.42944 36.4151L16.9 53.1825C33.8 72.975 67.6 111.825 101.4 117.6C135.2 123.375 169 95.025 202.8 75.6C241.807 53.1825 270.4 64.2075 304.2 75.6C338 86.7825 371.8 100.8 405.6 114.818C439.4 128.625 473.2 123.375 490.1 120.383L498.625 118.979C503.455 118.184 507 114.008 507 109.112V9.99999C507 4.47715 502.523 0 497 0H490.1C473.2 0 439.4 0 405.6 0C371.8 0 338 0 304.2 0C270.4 0 236.6 0 202.8 0C169 0 135.2 0 101.4 0C67.6 0 33.8 0 16.9 0H10C4.47715 0 0 4.47715 0 10V29.8816Z" fill="#FF3596"/>
<path d="M0 117.844H16.7667C33.5333 117.844 67.0667 117.844 100.6 103.037C134.133 88.2293 167.667 58.6147 201.2 66.0183C234.733 73.422 268.267 117.844 301.8 130.199C335.333 142.369 368.867 122.934 402.4 105.489C435.933 88.2293 469.467 73.422 486.233 66.0183L503 58.6147V29H486.233C469.467 29 435.933 29 402.4 29C368.867 29 335.333 29 301.8 29C268.267 29 234.733 29 201.2 29C167.667 29 134.133 29 100.6 29C67.0667 29 33.5333 29 16.7667 29H0V117.844Z" fill="#FF3596" fill-opacity="0.5"/>
<rect x="120" y="7.02148" width="6" height="20" rx="3" transform="rotate(-30.2367 120 7.02148)" fill="#552F17"/>
<rect x="95.5987" y="76.7607" width="6" height="20" rx="3" transform="rotate(11.0437 95.5987 76.7607)" fill="#552F17"/>
<rect x="36.7678" y="14" width="6" height="20" rx="3" transform="rotate(56.9703 36.7678 14)" fill="#552F17"/>
<rect x="269.573" y="26.9556" width="6" height="20" rx="3" transform="rotate(44.9726 269.573 26.9556)" fill="#552F17"/>
<rect x="470" y="85.3801" width="6" height="20" rx="3" transform="rotate(-13.298 470 85.3801)" fill="#552F17"/>
<rect x="429.135" y="8" width="6" height="18.5669" rx="3" transform="rotate(44.9726 429.135 8)" fill="#552F17"/>
</svg>
